<svg xmlns="http://www.w3.org/2000/svg" version="1.1" xmlns:xlink="http://www.w3.org/1999/xlink" xmlns:svgjs="http://svgjs.com/svgjs" width="100%" height="100%" viewBox="0 0 1000 600"><rect width="1000" height="600" x="0" y="0" fill="#223344"/><g><circle r="166.66666666666666" cx="404.8169809977213" cy="427.039158996149" fill="#909791" transform="matrix(0.5248786986800567,0,0,0.5248786986800565,0,75.85623965679211)"/><path d="M369.045689970811 485.278030877729L369.045689970811 446.9444482014061Q369.045689970811 438.7093294478236 365.6666059170312 435.7330501156864Q362.2875218632514 432.7567707835493 356.155938878247 432.7567707835493L356.155938878247 432.7567707835493L356.155938878247 421.4782385775559Q362.2875218632514 421.4782385775559 365.6666059170312 418.2558008044149Q369.045689970811 415.0333630312739 369.045689970811 407.9395243223455L369.045689970811 407.9395243223455L369.045689970811 368.95697848337613Q369.045689970811 361.3708228924401 372.84995678632464 356.71619055345866Q376.631845561747 352.039180174386 384.35226939323064 352.039180174386L384.35226939323064 352.039180174386L398.0476299290798 352.039180174386L398.0476299290798 363.3177123803794L389.9915354962273 363.3177123803794Q385.65019571852355 363.3177123803794 383.6361721103104 365.48838226923135Q381.62214850209733 367.6590521580832 381.62214850209733 372.8283794191636L381.62214850209733 372.8283794191636L381.62214850209733 411.0053158148477Q381.62214850209733 418.09915452377606 378.2430644483175 421.7915311388334Q374.86398039453775 425.5062857939821 370.34361629610385 426.3118952372673L370.34361629610385 426.3118952372673L370.34361629610385 427.27415096119137Q374.68495607380765 427.9231141238378 378.1535522879525 432.1973197812679Q381.62214850209733 436.4715254386979 381.62214850209733 443.22969354625747L381.62214850209733 443.22969354625747L381.62214850209733 481.24998366130274Q381.62214850209733 486.24028660165305 383.54665994994537 488.50046865086995Q385.4935494378847 490.7606507000869 390.1705598169574 490.7606507000869L390.1705598169574 490.7606507000869L398.0476299290798 490.7606507000869L398.0476299290798 502.0391829060803L384.35226939323064 502.0391829060803Q377.10178440366343 502.0391829060803 373.0737371872372 497.7649772486503Q369.045689970811 493.4907715912202 369.045689970811 485.278030877729L369.045689970811 485.278030877729ZM440.58828414255896 368.80033220273737L440.58828414255896 407.1339148790602Q440.58828414255896 415.3466555925515 443.9673681963388 418.3453129647799Q447.3688302902098 421.32159229691706 453.4780352351229 421.32159229691706L453.4780352351229 421.32159229691706L453.4780352351229 432.6001245029105Q447.3688302902098 432.6001245029105 443.9673681963388 435.8225622760515Q440.58828414255896 439.0450000491924 440.58828414255896 446.13883875812087L440.58828414255896 446.13883875812087L440.58828414255896 485.12138459709024Q440.58828414255896 492.685162147935 436.8063953671366 497.3621725270077Q433.02450659171416 502.0391829060803 425.2817047201393 502.0391829060803L425.2817047201393 502.0391829060803L411.58634418429017 502.0391829060803L411.58634418429017 490.7606507000869L419.6424386171426 490.7606507000869Q424.0061564349377 490.7606507000869 426.0201800431508 488.589980811235Q428.0342036513639 486.4193109223831 428.0342036513639 481.24998366130274L428.0342036513639 481.24998366130274L428.0342036513639 443.0730472656187Q428.0342036513639 435.97920855669025 431.32377554477864 432.26445390154163Q434.63572547828466 428.5720772864843 439.1337115366273 427.76646784319905L439.1337115366273 427.76646784319905L439.1337115366273 426.804212119275Q434.7923717589235 426.1552489566285 431.41328770514366 421.8810432991985Q428.0342036513639 417.60683764176844 428.0342036513639 410.84866953420885L428.0342036513639 410.84866953420885L428.0342036513639 372.8283794191636Q428.0342036513639 367.81569843872205 426.08731416342454 365.57789442959637Q424.16280271557645 363.3177123803794 419.6424386171426 363.3177123803794L419.6424386171426 363.3177123803794L411.58634418429017 363.3177123803794L411.58634418429017 352.039180174386L425.43835100077814 352.039180174386Q432.53218970970653 352.039180174386 436.56023692613275 356.31338583181605Q440.58828414255896 360.56521344915484 440.58828414255896 368.80033220273737L440.58828414255896 368.80033220273737Z " fill="#ffffff" transform="matrix(0.5248786986800567,0,0,0.5248786986800565,0,75.85623965679211)"/><path d="M654.8169873354881 467.75024823429067L654.8169873354881 353.82247776506625Q657.9095382675831 353.3258637467736 661.7244368626492 353.10013010209514Q665.5393354577153 352.8518230929488 669.6928345197992 352.76152963507747Q673.8237602174153 352.6938095416739 677.8192457282242 352.6035160838025Q681.7921578745653 352.5132226259311 685.2007359092103 352.5132226259311L685.2007359092103 352.5132226259311Q698.8576214122578 352.5132226259311 708.857621871514 356.7570151458864Q718.8576223307703 360.9782343013738 725.3587512975103 368.5403113981026Q731.8598802642503 376.0798151303635 735.0201512897488 386.64414970131594Q738.2029956797153 397.20848427226844 738.2029956797153 409.8947151031985L738.2029956797153 409.8947151031985Q738.2029956797153 421.4297043462684 735.1781648410238 432.08433237509223Q732.1759073668001 442.71638703944825 725.6747784000601 450.9330917057446Q719.1736494333202 459.1497963720409 708.7673284136426 464.0933631904994Q698.3835807584329 469.0595033734258 683.5754536675253 469.0595033734258L683.5754536675253 469.0595033734258Q680.9795167537228 469.0595033734258 676.8485910561068 468.9692099155544Q672.6950919940228 468.9014898221509 668.3158592872607 468.65318281300455Q663.9140532160303 468.40487580385826 660.1894480788357 468.2468622525833Q656.442269577173 468.0888487013084 654.8169873354881 467.75024823429067L654.8169873354881 467.75024823429067ZM685.5393363762279 364.5448258872936L685.5393363762279 364.5448258872936Q683.4174401162503 364.5448258872936 680.9117966603193 364.5448258872936Q678.3835798399203 364.5448258872936 675.9456564773928 364.70283943856856Q673.5077331148653 364.8834263543113 671.4761303127592 365.0414399055863Q669.444527510653 365.1994534568612 668.3158592872607 365.3574670081361L668.3158592872607 365.3574670081361L668.3158592872607 456.3732725424957Q669.1285004081032 456.53128609377063 671.3858368548878 456.62157955164207Q673.6657466661403 456.71187300951345 676.1036700286678 456.779593102917Q678.5415933911953 456.86988656078836 680.8215032024478 456.9376066541919Q683.1014130137004 457.0279001120633 683.9140541345429 457.0279001120633L683.9140541345429 457.0279001120633Q695.2910298263379 457.0279001120633 703.0111204743416 453.1227080591258Q710.7312111223454 449.2175160061882 715.358750838254 442.64866694604467Q719.9862905541627 436.0572445214333 721.9501732628654 427.5245127525871Q723.8914826071002 418.9917809837409 723.8914826071002 409.8947151031985L723.8914826071002 409.8947151031985Q723.8914826071002 401.9263174460485 722.1081868141403 393.8901996954949Q720.3248910211804 385.8315085804735 715.9230849499502 379.3303796137335Q711.5438522431879 372.82925064699356 704.1397886977339 368.6983249493775Q696.7582985167479 364.5448258872936 685.5393363762279 364.5448258872936ZM762.5822293049902 402.0843309973234L758.5190237007777 392.33263754721344Q764.6815522004999 388.60803241001867 772.8982568667963 386.82473661705876Q781.0923881686248 385.018867459631 790.0314404978923 385.018867459631L790.0314404978923 385.018867459631Q798.4964521733349 385.018867459631 803.6206059075362 387.29877727088353Q808.7221862772697 389.57868708213607 811.4084166489434 393.2355721259273Q814.0946470206172 396.89245716971857 814.9975815993312 401.2716898764809Q815.8779428135772 405.6734959477111 815.8779428135772 410.0527286544734L815.8779428135772 410.0527286544734Q815.8779428135772 419.8044221045834 815.4039021597524 429.0820749008686Q814.9072881414598 438.3371543326859 814.9072881414598 446.6215790923858L814.9072881414598 446.6215790923858Q814.9072881414598 452.64866740530096 815.4039021597524 457.9985547841807Q815.8779428135772 463.37101552752836 817.1871979527124 467.9082617855656L817.1871979527124 467.9082617855656L807.5935180538773 467.9082617855656L804.1849400192324 456.53128609377063L803.3722988983899 456.53128609377063Q801.9050302079798 458.8111959050232 799.7154138545986 461.0008122584044Q797.5257975012175 463.2130019762534 794.4332465691225 464.9060043113419Q791.3406956370274 466.62158001089836 787.277490032815 467.75024823429067Q783.2142844286025 468.9014898221509 778.0224106009975 468.9014898221509L778.0224106009975 468.9014898221509Q772.8079634089249 468.9014898221509 768.3384372442912 467.2762075804659Q763.8689110796574 465.6509253387809 760.6183465962874 462.6260945000894Q757.3677821129174 459.6238370258657 755.4941928620862 455.4026178703783Q753.6431769757227 451.1813987148909 753.6431769757227 445.8089379715433L753.6431769757227 445.8089379715433Q753.6431769757227 438.65318143523575 756.5551409920749 433.86762816805214Q759.4896783728951 429.0820749008686 764.7718456583714 426.2378309779198Q770.0540129438475 423.3935870549711 777.4355031248335 422.17462537370733Q784.8395666702875 420.9556636924436 793.7786189995549 420.9556636924436L793.7786189995549 420.9556636924436Q796.0585288108075 420.9556636924436 798.2481451641886 420.9556636924436Q800.4377615175698 420.9556636924436 802.7176713288223 421.27169079499345L802.7176713288223 421.27169079499345Q803.214285347115 416.39584406993845 803.214285347115 412.4906520170009L803.214285347115 412.4906520170009Q803.214285347115 403.55159968773347 799.6251203967273 399.9850081018136Q796.0585288108075 396.39584315142594 786.6228624632474 396.39584315142594L786.6228624632474 396.39584315142594Q783.86891199817 396.39584315142594 780.6860676082035 396.8021637118472Q777.525796582705 397.20848427226844 774.1849386414635 397.95340529970736Q770.86665406469 398.6757529626785 767.8643965904664 399.7367010926673Q764.8395657517749 400.7976492226561 762.5822293049902 402.0843309973234L762.5822293049902 402.0843309973234ZM781.5890021869175 457.5245141303559L781.5890021869175 457.5245141303559Q786.1488218094225 457.5245141303559 789.7154133953425 456.3055524490922Q793.2820049812622 455.08659076782845 795.9005152595325 453.2130015169971Q798.4964521733349 451.3394122661658 800.1894545084235 449.0595024549133Q801.9050302079798 446.7795926436607 802.7176713288223 444.6802697481509L802.7176713288223 444.6802697481509L802.7176713288223 431.18139779637835Q800.4377615175698 431.02338424510344 798.0901316129136 430.933090787232Q795.7199283437898 430.8653706938285 793.462591897005 430.8653706938285L793.462591897005 430.8653706938285Q788.4061582562073 430.8653706938285 783.6206049890237 431.4297048055247Q778.83505172184 431.99403891722085 775.1781666780489 433.55160106550227Q771.5212816342575 435.0865898493159 769.3090919164086 437.77282022098973Q767.1194755630274 440.4590505926635 767.1194755630274 444.522256196876L767.1194755630274 444.522256196876Q767.1194755630274 450.21074404277346 771.1826811672399 453.8676290865647Q775.2458867714524 457.5245141303559 781.5890021869175 457.5245141303559ZM905.6070665732695 467.59223468301576L892.6048086397896 467.59223468301576L892.6048086397896 421.27169079499345Q892.6048086397896 408.5854599640634 888.9479235959984 402.17462445519476Q885.291038552207 395.7637889463262 875.5393451020972 395.7637889463262L875.5393451020972 395.7637889463262Q866.9163198753796 395.7637889463262 861.3181254873534 400.39132866223486Q855.6973577348595 405.0188683781435 853.4174479236069 412.01661136317614L853.4174479236069 412.01661136317614L853.4174479236069 467.59223468301576L840.415189990127 467.59223468301576L840.415189990127 386.3281225987661L849.5348292351373 386.3281225987661L851.9727525976648 396.237829600151L852.6048068027644 396.237829600151Q856.5099988557021 391.04595577254617 863.1014212803134 387.7050978313048Q869.6702703404569 384.38681325453126 878.7899095854672 384.38681325453126L878.7899095854672 384.38681325453126Q885.449052103482 384.38681325453126 890.482912379812 385.9218020383449Q895.5167726561418 387.45679082215844 898.8576305973833 391.36198287509603Q902.1759151741568 395.26717492803357 903.8914908737131 401.8585973526449Q905.6070665732695 408.4274464127884 905.6070665732695 418.51774032991614L905.6070665732695 418.51774032991614L905.6070665732695 467.59223468301576ZM932.0856230940542 467.59223468301576L932.0856230940542 386.3281225987661L945.0878810275342 386.3281225987661L945.0878810275342 467.59223468301576L932.0856230940542 467.59223468301576ZM929.3316726289769 361.6328618709413L929.3316726289769 361.6328618709413Q929.3316726289769 357.88568336927875 931.8373160849078 355.1994529976049Q934.3655329053067 352.5132226259311 938.2707249582443 352.5132226259311L938.2707249582443 352.5132226259311Q942.1759170111818 352.5132226259311 944.9298674762592 355.1994529976049Q947.6838179413367 357.88568336927875 947.6838179413367 361.6328618709413L947.6838179413367 361.6328618709413Q947.6838179413367 365.3574670081361 944.9298674762592 367.7953903706636Q942.1759170111818 370.2333137331911 938.2707249582443 370.2333137331911L938.2707249582443 370.2333137331911Q934.3655329053067 370.2333137331911 931.8373160849078 367.7953903706636Q929.3316726289769 365.3574670081361 929.3316726289769 361.6328618709413ZM1027.3226477839012 451.6554393687157L1032.1984945089562 461.09110571627576Q1027.3226477839012 464.99629776921336 1019.9411576029152 467.2762075804659Q1012.5370940574613 469.5335440272506 1004.2526692977615 469.5335440272506L1004.2526692977615 469.5335440272506Q994.9975898659441 469.5335440272506 988.1578604321865 466.5312865530269Q981.3407043628966 463.52902907880326 976.9388982916664 457.93083469077715Q972.559665584904 452.3100669382833 970.4377693249264 444.522256196876Q968.3384464294168 436.7118720910009 968.3384464294168 426.96017864089094L968.3384464294168 426.96017864089094Q968.3384464294168 406.1475366015359 977.593525861234 395.26717492803357Q986.8711786575192 384.38681325453126 1004.0946557464865 384.38681325453126L1004.0946557464865 384.38681325453126Q1009.6251300411091 384.38681325453126 1015.1330309712638 385.605774935795Q1020.6635052658863 386.82473661705876 1025.0653113371168 390.23331465170367Q1029.444544043879 393.64189268634857 1032.1984945089562 399.8947146439422Q1034.9750183385013 406.1475366015359 1034.9750183385013 416.39584406993845L1034.9750183385013 416.39584406993845Q1034.9750183385013 421.7683048132861 1034.004363666384 428.2694337800261L1034.004363666384 428.2694337800261L981.8147450167214 428.2694337800261Q981.8147450167214 435.40261695186575 983.2820137071315 440.9330912464883Q984.7492823975415 446.4635655411108 987.8418333296365 450.27846413617704Q990.9343842617317 454.09336273124313 995.8779510801901 456.1249655333494Q1000.8440912631165 458.15656833545563 1007.9998477994241 458.15656833545563L1007.9998477994241 458.15656833545563Q1013.5077487295788 458.15656833545563 1019.0382230242013 456.2152589912208Q1024.568697318824 454.27394964698595 1027.3226477839012 451.6554393687157L1027.3226477839012 451.6554393687157ZM1004.2526692977615 395.7637889463262L1004.2526692977615 395.7637889463262Q994.6589893989265 395.7637889463262 988.9027814596254 400.7976492226561Q983.1240001558565 405.831509498986 981.9953319324642 418.02112631162345L981.9953319324642 418.02112631162345L1022.2887875075712 418.02112631162345Q1022.2887875075712 405.6734959477111 1017.5709543337913 400.7073557647847Q1012.8756945244791 395.7637889463262 1004.2526692977615 395.7637889463262ZM1069.918586534729 353.82247776506625L1069.918586534729 447.5922337645032Q1069.918586534729 453.28072161040063 1071.8598958789635 455.71864497292813Q1073.8237785876663 458.15656833545563 1077.3903701735862 458.15656833545563L1077.3903701735862 458.15656833545563Q1079.512266433564 458.15656833545563 1081.9501897960913 457.8405412329058Q1084.3881131586186 457.5245141303559 1087.4580907262462 456.3732725424957L1087.4580907262462 456.3732725424957L1088.9253594166562 466.62158001089836Q1086.3294225028535 467.9082617855656 1081.7018827869451 468.7209029064081Q1077.0743430710363 469.5335440272506 1073.6431916719234 469.5335440272506L1073.6431916719234 469.5335440272506Q1066.3294215843412 469.5335440272506 1061.634161775029 465.4026183296346Q1056.916328601249 461.2491192675507 1056.916328601249 451.3394122661658L1056.916328601249 451.3394122661658L1056.916328601249 353.82247776506625L1069.918586534729 353.82247776506625ZM1222.1985032348257 469.37553047597567L1168.0901486053958 393.14527866805594L1159.3091098274035 376.7344426999311L1158.6544822578358 376.7344426999311L1160.2797644995208 393.14527866805594L1160.2797644995208 467.59223468301576L1147.5935336685907 467.59223468301576L1147.5935336685907 352.0391819721063L1154.7492902048984 352.0391819721063L1209.1962453013457 427.93083331300835L1217.661256976788 443.52902816029075L1218.4738980976308 443.52902816029075L1216.668028940203 427.93083331300835L1216.668028940203 353.82247776506625L1229.354259771133 353.82247776506625L1229.354259771133 469.37553047597567L1222.1985032348257 469.37553047597567ZM1251.1375564826053 426.96017864089094L1251.1375564826053 426.96017864089094Q1251.1375564826053 406.32812351727864 1260.3249158210192 395.35746838590495Q1269.4897017949652 384.38681325453126 1286.7357522484003 384.38681325453126L1286.7357522484003 384.38681325453126Q1295.8328181289426 384.38681325453126 1302.5822541048292 387.3890707287549Q1309.3091167162474 390.39132820297857 1313.7109227874776 395.9895225910047Q1318.0901554942402 401.6102903434986 1320.2120517542176 409.48839454277726Q1322.3113746497274 417.3664987420559 1322.3113746497274 426.96017864089094L1322.3113746497274 426.96017864089094Q1322.3113746497274 447.5922337645032 1313.1465886757815 458.5628888958769Q1303.959229337368 469.5335440272506 1286.7357522484003 469.5335440272506L1286.7357522484003 469.5335440272506Q1277.6161130033902 469.5335440272506 1270.889250391972 466.5312865530269Q1264.1398144160853 463.52902907880326 1259.7380083448552 457.93083469077715Q1255.358775638093 452.3100669382833 1253.2368793781152 444.4319627390046Q1251.1375564826053 436.553858539726 1251.1375564826053 426.96017864089094ZM1264.6138550699102 426.96017864089094L1264.6138550699102 426.96017864089094Q1264.6138550699102 433.145280505081 1265.832816751174 438.8337683509785Q1267.0517784324375 444.522256196876 1269.670288710708 448.7434753523634Q1272.2662256245103 452.9646945078508 1276.487444779998 455.5606314216532Q1280.7086639354852 458.15656833545563 1286.7357522484003 458.15656833545563L1286.7357522484003 458.15656833545563Q1308.8350760624226 458.3371552511984 1308.8350760624226 426.96017864089094L1308.8350760624226 426.96017864089094Q1308.8350760624226 420.6170632254259 1307.6161143811592 414.9285753795284Q1306.3971526998953 409.2400875336309 1303.8012157860926 405.0188683781435Q1301.1827055078224 400.7976492226561 1296.9614863523352 398.2694324022572Q1292.7402671968475 395.7637889463262 1286.7357522484003 395.7637889463262L1286.7357522484003 395.7637889463262Q1264.6138550699102 395.58320203058344 1264.6138550699102 426.96017864089094ZM1383.9140862824825 386.3281225987661L1381.1601358174048 398.8337665139534Q1376.2842890923498 397.20848427226844 1371.8824830211197 397.20848427226844L1371.8824830211197 397.20848427226844Q1364.9073134005548 397.20848427226844 1360.8441077963425 401.04595623180245Q1356.7809021921298 404.8608548268686 1355.8102475200126 410.707356224041L1355.8102475200126 410.707356224041L1355.8102475200126 467.59223468301576L1342.8079895865326 467.59223468301576L1342.8079895865326 386.3281225987661L1351.9050554670748 386.3281225987661L1354.3429788296025 396.237829600151L1354.9976063991699 396.237829600151Q1358.0675839667974 390.70735530552844 1362.3790965801559 387.7050978313048Q1366.6906091935148 384.70284035708113 1373.3497517115297 384.70284035708113L1373.3497517115297 384.70284035708113Q1378.0675848853098 384.70284035708113 1383.9140862824825 386.3281225987661L1383.9140862824825 386.3281225987661ZM1400.8215362688998 467.59223468301576L1400.8215362688998 386.3281225987661L1413.8237942023798 386.3281225987661L1413.8237942023798 467.59223468301576L1400.8215362688998 467.59223468301576ZM1398.0675858038226 361.6328618709413L1398.0675858038226 361.6328618709413Q1398.0675858038226 357.88568336927875 1400.5732292597536 355.1994529976049Q1403.1014460801525 352.5132226259311 1407.0066381330898 352.5132226259311L1407.0066381330898 352.5132226259311Q1410.8892568215597 352.5132226259311 1413.6657806511048 355.1994529976049Q1416.419731116182 357.88568336927875 1416.419731116182 361.6328618709413L1416.419731116182 361.6328618709413Q1416.419731116182 365.3574670081361 1413.6657806511048 367.7953903706636Q1410.8892568215597 370.2333137331911 1407.0066381330898 370.2333137331911L1407.0066381330898 370.2333137331911Q1403.1014460801525 370.2333137331911 1400.5732292597536 367.7953903706636Q1398.0675858038226 365.3574670081361 1398.0675858038226 361.6328618709413ZM1496.058560958747 451.6554393687157L1500.934407683802 461.09110571627576Q1496.058560958747 464.99629776921336 1488.6770707777605 467.2762075804659Q1481.273007232307 469.5335440272506 1472.988582472607 469.5335440272506L1472.988582472607 469.5335440272506Q1463.710929676322 469.5335440272506 1456.893773607032 466.5312865530269Q1450.076617537742 463.52902907880326 1445.674811466512 457.93083469077715Q1441.2955787597498 452.3100669382833 1439.173682499772 444.522256196876Q1437.074359604262 436.7118720910009 1437.074359604262 426.96017864089094L1437.074359604262 426.96017864089094Q1437.074359604262 406.1475366015359 1446.3294390360793 395.26717492803357Q1455.584518467897 384.38681325453126 1472.830568921332 384.38681325453126L1472.830568921332 384.38681325453126Q1478.338469851487 384.38681325453126 1483.8689441461092 385.605774935795Q1489.399418440732 386.82473661705876 1493.7786511474942 390.23331465170367Q1498.1804572187243 393.64189268634857 1500.934407683802 399.8947146439422Q1503.710931513347 406.1475366015359 1503.710931513347 416.39584406993845L1503.710931513347 416.39584406993845Q1503.710931513347 421.7683048132861 1502.7177034767615 428.2694337800261L1502.7177034767615 428.2694337800261L1450.550658191567 428.2694337800261Q1450.550658191567 435.40261695186575 1452.017926881977 440.9330912464883Q1453.485195572387 446.4635655411108 1456.577746504482 450.27846413617704Q1459.6477240721097 454.09336273124313 1464.6138642550359 456.1249655333494Q1469.580004437962 458.15656833545563 1476.713187609802 458.15656833545563L1476.713187609802 458.15656833545563Q1482.2436619044242 458.15656833545563 1487.774136199047 456.2152589912208Q1493.3046104936693 454.27394964698595 1496.058560958747 451.6554393687157L1496.058560958747 451.6554393687157ZM1472.988582472607 395.7637889463262L1472.988582472607 395.7637889463262Q1463.394902573772 395.7637889463262 1457.616121270003 400.7976492226561Q1451.859913330702 405.831509498986 1450.708671742842 418.02112631162345L1450.708671742842 418.02112631162345L1491.024700682417 418.02112631162345Q1491.024700682417 405.6734959477111 1486.306867508637 400.7073557647847Q1481.589034334857 395.7637889463262 1472.988582472607 395.7637889463262ZM1584.6364431305788 389.73670063341103L1584.6364431305788 471.3394131846784Q1584.6364431305788 487.0956215832357 1576.2617249130076 494.56740522209304Q1567.9095800599043 502.03918886095045 1551.4761707273115 502.03918886095045L1551.4761707273115 502.03918886095045Q1541.7244772772015 502.03918886095045 1535.8102557866255 500.82022717968675Q1529.8734609315816 499.601265498423 1525.6522417760943 497.6599561541881L1525.6522417760943 497.6599561541881L1529.0608198107393 486.599007564943Q1532.7854249479342 488.0662762553531 1537.3452445704393 489.37553139448823Q1541.9050641929443 490.6622131691555 1549.2188342805266 490.6622131691555L1549.2188342805266 490.6622131691555Q1556.0359903498165 490.6622131691555 1560.3475029631754 489.44325148789176Q1564.6590155765343 488.224289806628 1567.2549524903366 485.38004588367926Q1569.8508894041388 482.5358019607305 1570.8215440762565 478.0662757960968Q1571.7921987483737 473.59674963146307 1571.7921987483737 467.4342211317408L1571.7921987483737 467.4342211317408L1571.7921987483737 459.6238370258657L1571.1601445432743 459.6238370258657Q1567.9095800599043 464.34167019964576 1562.8531464191065 466.86988702004464Q1557.8192861427765 469.37553047597567 1549.6928749343515 469.37553047597567L1549.6928749343515 469.37553047597567Q1533.2820389662265 469.37553047597567 1525.5619483182231 459.1497963720409Q1517.8418576702193 448.9014889036383 1517.8418576702193 427.27620574344076L1517.8418576702193 427.27620574344076Q1517.8418576702193 406.4861370685536 1527.7515646716042 395.6734954884548Q1537.6612716729892 384.86085390835603 1557.0066450219338 384.86085390835603L1557.0066450219338 384.86085390835603Q1566.2842978182193 384.86085390835603 1572.8531468783626 386.3281225987661Q1579.4445693029743 387.79539128917617 1584.6364431305788 389.73670063341103L1584.6364431305788 389.73670063341103ZM1551.9727847456043 457.9985547841807L1551.9727847456043 457.9985547841807Q1560.2572095053042 457.9985547841807 1564.9750426790838 453.8676290865647Q1569.6928758528643 449.7141300244808 1571.6341851970988 440.9330912464883L1571.6341851970988 440.9330912464883L1571.6341851970988 399.33038053224607Q1565.1330562303588 396.237829600151 1555.0653356776993 396.237829600151L1555.0653356776993 396.237829600151Q1544.0043870884538 396.237829600151 1537.6612716729892 403.7096132390084Q1531.3407296219916 411.20397024233364 1531.3407296219916 427.11819219216585L1531.3407296219916 427.11819219216585Q1531.3407296219916 433.9579216259235 1532.4693978453843 439.646409471821Q1533.5980660687765 445.3348973177185 1536.0359894313042 449.39810292193096Q1538.4739127938315 453.46130852614345 1542.3791048467692 455.71864497292813Q1546.2842968997065 457.9985547841807 1551.9727847456043 457.9985547841807ZM1612.4242547904987 402.0843309973234L1608.361049186286 392.33263754721344Q1614.546151050476 388.60803241001867 1622.7628557167727 386.82473661705876Q1630.956987018601 385.018867459631 1639.8960393478687 385.018867459631L1639.8960393478687 385.018867459631Q1648.3610510233111 385.018867459631 1653.4626313930448 387.29877727088353Q1658.586785127246 389.57868708213607 1661.27301549892 393.2355721259273Q1663.9592458705938 396.89245716971857 1664.8396070848398 401.2716898764809Q1665.7425416635538 405.6734959477111 1665.7425416635538 410.0527286544734L1665.7425416635538 410.0527286544734Q1665.7425416635538 419.8044221045834 1665.245927645261 429.0820749008686Q1664.771886991436 438.3371543326859 1664.771886991436 446.6215790923858L1664.771886991436 446.6215790923858Q1664.771886991436 452.64866740530096 1665.245927645261 457.9985547841807Q1665.7425416635538 463.37101552752836 1667.0517968026888 467.9082617855656L1667.0517968026888 467.9082617855656L1657.4581169038538 467.9082617855656L1654.0495388692088 456.53128609377063L1653.2368977483666 456.53128609377063Q1651.769629057956 458.8111959050232 1649.580012704575 461.0008122584044Q1647.367822986726 463.2130019762534 1644.2978454190988 464.9060043113419Q1641.2052944870038 466.62158001089836 1637.142088882791 467.75024823429067Q1633.0788832785788 468.9014898221509 1627.864436086506 468.9014898221509L1627.864436086506 468.9014898221509Q1622.672562258901 468.9014898221509 1618.2030360942676 467.2762075804659Q1613.7335099296338 465.6509253387809 1610.4829454462638 462.6260945000894Q1607.2323809628938 459.6238370258657 1605.3587917120626 455.4026178703783Q1603.4852024612314 451.1813987148909 1603.4852024612314 445.8089379715433L1603.4852024612314 445.8089379715433Q1603.4852024612314 438.65318143523575 1606.4197398420515 433.86762816805214Q1609.3542772228716 429.0820749008686 1614.6364445083477 426.2378309779198Q1619.9186117938239 423.3935870549711 1627.3001019748099 422.17462537370733Q1634.7041655202638 420.9556636924436 1643.643217849531 420.9556636924436L1643.643217849531 420.9556636924436Q1645.9231276607838 420.9556636924436 1648.112744014165 420.9556636924436Q1650.302360367546 420.9556636924436 1652.5822701787988 421.27169079499345L1652.5822701787988 421.27169079499345Q1653.0563108326232 416.39584406993845 1653.0563108326232 412.4906520170009L1653.0563108326232 412.4906520170009Q1653.0563108326232 403.55159968773347 1649.4897192467038 399.9850081018136Q1645.9231276607838 396.39584315142594 1636.4874613132238 396.39584315142594L1636.4874613132238 396.39584315142594Q1633.7335108481461 396.39584315142594 1630.5506664581799 396.8021637118472Q1627.3903954326815 397.20848427226844 1624.0495374914399 397.95340529970736Q1620.7312529146666 398.6757529626785 1617.7064220759748 399.7367010926673Q1614.7041646017515 400.7976492226561 1612.4242547904987 402.0843309973234L1612.4242547904987 402.0843309973234ZM1631.4536010368938 457.5245141303559L1631.4536010368938 457.5245141303559Q1635.990847294931 457.5245141303559 1639.5800122453188 456.3055524490922Q1643.1466038312387 455.08659076782845 1645.742540745041 453.2130015169971Q1648.3610510233111 451.3394122661658 1650.0540533583999 449.0595024549133Q1651.769629057956 446.7795926436607 1652.5822701787988 444.6802697481509L1652.5822701787988 444.6802697481509L1652.5822701787988 431.18139779637835Q1650.302360367546 431.02338424510344 1647.95473046289 430.933090787232Q1645.584527193766 430.8653706938285 1643.3046173825137 430.8653706938285L1643.3046173825137 430.8653706938285Q1638.2707571061837 430.8653706938285 1633.485203839 431.4297048055247Q1628.6770772073487 431.99403891722085 1625.0201921635576 433.55160106550227Q1621.3633071197664 435.0865898493159 1619.1736907663849 437.77282022098973Q1616.9840744130038 440.4590505926635 1616.9840744130038 444.522256196876L1616.9840744130038 444.522256196876Q1616.9840744130038 450.21074404277346 1621.0472800172165 453.8676290865647Q1625.1104856214288 457.5245141303559 1631.4536010368938 457.5245141303559Z " fill="#ffffff" transform="matrix(0.5248786986800567,0,0,0.5248786986800565,0,75.85623965679211)"/></g></svg>